<svg xmlns="http://www.w3.org/2000/svg" viewBox="0 0 1200 630"><rect width="1200" height="630" fill="#071715"/><path d="M0 0h1200v630H0z" fill="none" stroke="#1f8176" stroke-width="18"/><g transform="translate(90 90) scale(1.5)"><path fill="none" stroke="#49b7aa" stroke-width="5" stroke-linecap="round" stroke-linejoin="round" d="M84 18c-19 4-26 18-22 31 3 11 13 18 15 28 2 9-4 19-16 24-18 8-39 0-47-15 16 6 30 4 41-4 9-7 10-17 5-25-7-11-5-25 5-34 6-5 12-6 19-5Z"/><path fill="#49b7aa" d="m82 18 27 7-23 10Z"/></g><text x="90" y="390" fill="#fffdf7" font-family="Georgia,serif" font-size="82">La caccia ai cigni neri</text><text x="94" y="478" fill="#fffdf7" font-family="Georgia,serif" font-size="82">è aperta.</text><text x="96" y="555" fill="#49b7aa" font-family="Arial,sans-serif" font-size="28" letter-spacing="7">GIOCA SUL SERIO</text></svg>