<svg xmlns="http://www.w3.org/2000/svg" viewBox="0 0 960 540" role="img" aria-labelledby="t d"><title id="t">WideMed</title><desc id="d">Segnaposto grafico WG-01</desc><defs><linearGradient id="g" x1="0" y1="0" x2="1" y2="1"><stop stop-color="#12302c"/><stop offset="1" stop-color="#061411"/></linearGradient><pattern id="p" width="40" height="40" patternUnits="userSpaceOnUse"><path d="M40 0H0V40" fill="none" stroke="#49b7aa" stroke-opacity=".08"/></pattern></defs><rect width="960" height="540" fill="url(#g)"/><rect width="960" height="540" fill="url(#p)"/><g fill="none" stroke="#49b7aa" stroke-width="3" stroke-opacity=".55"><path d="m130 230 60-35 60 35v70l-60 35-60-35Zm120 0 60-35 60 35v70l-60 35-60-35Zm120 0 60-35 60 35v70l-60 35-60-35Zm120 0 60-35 60 35v70l-60 35-60-35Zm120 0 60-35 60 35v70l-60 35-60-35Z"/></g><text x="72" y="475" fill="#fffdf7" font-family="Georgia,serif" font-size="42">WideMed</text><text x="75" y="90" fill="#49b7aa" font-family="Arial,sans-serif" font-size="20" letter-spacing="6">WG-01</text><text x="835" y="88" fill="#49b7aa" font-family="Arial,sans-serif" font-size="18">GSS</text></svg>