<svg
  xmlns="http://www.w3.org/2000/svg"
  viewBox="0 0 128 128"
  role="img"
  aria-labelledby="title"
>
  <title id="title">Cigno nero stilizzato</title>

  <defs>
    <mask id="swan-mask">
      <rect width="128" height="128" fill="black"/>

      <path
        fill="none"
        stroke="white"
        stroke-width="5"
        stroke-linecap="round"
        stroke-linejoin="round"
        d="M84 18c-19 4-26 18-22 31 3 11 13 18 15 28 2 9-4 19-16 24-18 8-39 0-47-15 16 6 30 4 41-4 9-7 10-17 5-25-7-11-5-25 5-34 6-5 12-6 19-5Z"
      />

      <path
        fill="white"
        d="m82 18 27 7-23 10Z"
      />

      <circle
        cx="80"
        cy="24"
        r="2.5"
        fill="black"
      />
    </mask>
  </defs>

  <rect
    width="128"
    height="128"
    fill="black"
    mask="url(#swan-mask)"
  />
</svg>